<?xml version="1.0" standalone="no"?>
<!DOCTYPE svg PUBLIC "-//W3C//DTD SVG 20010904//EN"
 "http://www.w3.org/TR/2001/REC-SVG-20010904/DTD/svg10.dtd">
<svg version="1.0" xmlns="http://www.w3.org/2000/svg"
 width="256.000000pt" height="256.000000pt" viewBox="0 0 256.000000 256.000000"
 preserveAspectRatio="xMidYMid meet">
<metadata>
Created by potrace 1.14, written by Peter Selinger 2001-2017
</metadata>
<g transform="translate(0.000000,256.000000) scale(0.100000,-0.100000)"
fill="#000000" stroke="none">
<path d="M1188 2415 c-2 -2 -35 -5 -74 -8 -113 -9 -296 -65 -404 -123 -147
-79 -316 -231 -402 -360 -93 -140 -168 -324 -183 -448 -3 -23 -8 -52 -10 -66
-8 -34 -7 -215 0 -270 62 -468 395 -844 852 -961 147 -37 341 -44 478 -16 62
13 101 21 107 21 3 1 10 4 14 9 4 4 14 7 22 7 40 0 244 105 331 171 280 212
448 534 455 874 l1 30 -65 2 c-58 2 -251 3 -290 2 -8 -1 -62 -1 -120 0 -58 0
-112 0 -120 0 -8 -1 -62 -1 -120 0 -58 0 -112 0 -120 0 -8 0 -79 0 -157 1
l-141 1 54 157 c30 86 80 231 110 322 30 91 60 174 65 185 5 11 20 54 33 95
25 76 89 261 101 292 9 23 -14 33 -132 57 -83 17 -275 35 -285 26z"/>
<path d="M1785 2367 c-2 -6 -22 -64 -43 -127 -22 -63 -52 -151 -67 -195 -53
-155 -193 -560 -200 -578 -7 -16 19 -17 486 -15 l493 3 -3 50 c-17 296 -169
573 -406 740 -120 84 -252 147 -260 122z"/>
</g>
</svg>
